<svg xmlns="http://www.w3.org/2000/svg" xml:space="preserve" width="14px" height="14px" version="1.1" style="shape-rendering:geometricPrecision; text-rendering:geometricPrecision; image-rendering:optimizeQuality; fill-rule:evenodd; clip-rule:evenodd"
viewBox="0 0 1255 1255"
 xmlns:xlink="http://www.w3.org/1999/xlink"
 xmlns:xodm="http://www.corel.com/coreldraw/odm/2003">
 <defs>
  <style type="text/css">
   <![CDATA[
    .fil0 {fill:#0E1921}
   ]]>
  </style>
 </defs>
 <g id="Camada_x0020_1">
  <metadata id="CorelCorpID_0Corel-Layer"/>
  <path class="fil0" d="M960 224c-41,0 -74,33 -74,74 0,40 33,73 74,73 40,0 73,-33 73,-73 0,-41 -33,-74 -73,-74zm-327 601c-110,0 -198,-88 -198,-198 0,-109 88,-198 198,-198 109,0 197,89 197,198 0,110 -88,198 -197,198zm0 -507c-171,0 -309,139 -309,309 0,171 138,309 309,309 170,0 309,-138 309,-309 0,-170 -139,-309 -309,-309zm-256 -200c-143,0 -259,116 -259,259l0 501c0,143 116,259 259,259l501 0c143,0 259,-116 259,-259l0 -501c0,-143 -116,-259 -259,-259l-501 0zm501 1137l-501 0c-208,0 -377,-169 -377,-377l0 -501c0,-208 169,-377 377,-377l501 0c208,0 377,169 377,377l0 501c0,208 -169,377 -377,377z"/>
 </g>
</svg>